# xmcd CD database file
#
# Track frame offsets:
#	183
#	13745
#	25318
#	37135
#	48293
#	58845
#	67365
#	79480
#	101925
#	115045
#	128430
#	140640
#	155113
#	187615
#	201240
#	216750
#	229008
#
# Disc length: 3196 seconds
#
# Revision: 0
# Processed by: cddbd v1.4PL0 Copyright (c) Steve Scherf et al.
# Submitted via: CDex 1.50Beta7
#
DISCID=fc0c7a11
DTITLE=Johnny Meyer - After you've gone
DYEAR=1900
DGENRE=Jazz
TTITLE0=It had to be you
TTITLE1=I'm forever blowing bubbles
TTITLE2=All of me
TTITLE3=Tea for two
TTITLE4=After you've gone
TTITLE5=I want to be happy
TTITLE6=Medley
TTITLE7=Medley
TTITLE8=Medley
TTITLE9=Medley
TTITLE10=Medley
TTITLE11=Valse de Paris
TTITLE12=Medley
TTITLE13=Bessarabianka
TTITLE14=Dobra Dobra
TTITLE15=Hora Staccato
TTITLE16=Tahro (Schwarze augen)
EXTD=
EXTT0=
EXTT1=
EXTT2=
EXTT3=
EXTT4=
EXTT5=
EXTT6=
EXTT7=
EXTT8=
EXTT9=
EXTT10=
EXTT11=
EXTT12=
EXTT13=
EXTT14=
EXTT15=
EXTT16=
PLAYORDER=
